<svg width="33" height="33" viewBox="0 0 33 33" fill="none" xmlns="http://www.w3.org/2000/svg">
<g id="baby-carriage" clip-path="url(#clip0_399_332)">
<path id="Vector" d="M9.33281 1.09565C8.60449 -0.0516201 6.93516 -0.373886 5.85234 0.489786C2.2752 3.34506 0 7.60541 0 12.3749H16.5L9.33281 1.09565ZM31.9688 6.18744H28.875C26.5998 6.18744 24.75 8.03725 24.75 10.3124V14.4374H0C0 17.6988 1.48242 20.6507 3.88652 22.8615C1.65645 23.4351 0 25.4396 0 27.8437C0 30.6925 2.30742 32.9999 5.15625 32.9999C8.00508 32.9999 10.3125 30.6925 10.3125 27.8437C10.3125 27.2701 10.1965 26.7351 10.0289 26.2195C11.4211 26.5997 12.9035 26.8124 14.4375 26.8124C15.9715 26.8124 17.4604 26.5997 18.8461 26.2195C18.6721 26.7351 18.5625 27.2701 18.5625 27.8437C18.5625 30.6925 20.8699 32.9999 23.7188 32.9999C26.5676 32.9999 28.875 30.6925 28.875 27.8437C28.875 25.4396 27.2186 23.4351 24.9885 22.8615C27.3926 20.6507 28.875 17.6988 28.875 14.4374V10.3124H31.9688C32.5359 10.3124 33 9.84838 33 9.28119V7.21869C33 6.6515 32.5359 6.18744 31.9688 6.18744ZM5.15625 29.9062C4.02187 29.9062 3.09375 28.9781 3.09375 27.8437C3.09375 26.7093 4.02187 25.7812 5.15625 25.7812C6.29063 25.7812 7.21875 26.7093 7.21875 27.8437C7.21875 28.9781 6.29063 29.9062 5.15625 29.9062ZM25.7812 27.8437C25.7812 28.9781 24.8531 29.9062 23.7188 29.9062C22.5844 29.9062 21.6562 28.9781 21.6562 27.8437C21.6562 26.7093 22.5844 25.7812 23.7188 25.7812C24.8531 25.7812 25.7812 26.7093 25.7812 27.8437Z" fill="#4AB7B6"/>
</g>
<defs>
<clipPath id="clip0_399_332">
<rect width="33" height="33" fill="white"/>
</clipPath>
</defs>
</svg>
