<svg width="16" height="15" viewBox="0 0 16 15" fill="none" xmlns="http://www.w3.org/2000/svg">
<path d="M16 7.5C16 11.6421 12.4183 15 8 15C3.58171 15 0 11.6421 0 7.5C0 3.35785 3.58171 0 8 0C12.4183 0 16 3.35785 16 7.5ZM11.4306 6.43155C11.5899 5.4336 10.7793 4.89711 9.67094 4.53922L10.0305 3.18735L9.15265 2.98228L8.80261 4.29853C8.57184 4.24461 8.33481 4.19377 8.09929 4.14339L8.45184 2.81849L7.57448 2.61342L7.21471 3.96481C7.02368 3.92401 6.83616 3.8837 6.65416 3.8413L6.65516 3.83707L5.44452 3.5537L5.211 4.43259C5.211 4.43259 5.86232 4.57252 5.84858 4.58117C6.20413 4.66436 6.26839 4.88492 6.25761 5.05975L5.84806 6.59982C5.87258 6.60569 5.90432 6.61412 5.93932 6.62725C5.91006 6.62044 5.87881 6.61294 5.84655 6.60569L5.27248 8.76308C5.22897 8.86433 5.11871 9.01621 4.87019 8.95857C4.87894 8.97051 4.23213 8.80926 4.23213 8.80926L3.79632 9.75121L4.93871 10.0182C5.15123 10.0681 5.35952 10.1203 5.56452 10.1695L5.20123 11.5369L6.07806 11.7419L6.43784 10.3891C6.67037 10.4482 6.90358 10.5049 7.13742 10.5593L6.77887 11.9058L7.65671 12.1108L8.02 10.7461C9.5169 11.0116 10.6425 10.9045 11.1163 9.63538C11.4981 8.61351 11.0973 8.02406 10.3097 7.63969C10.8833 7.51576 11.3154 7.16211 11.4306 6.43155ZM9.4249 9.06801C9.15361 10.0899 7.31819 9.53746 6.72313 9.39895L7.20519 7.58749C7.80023 7.72669 9.70842 8.00232 9.4249 9.06801ZM9.69642 6.41679C9.4489 7.34631 7.92123 6.87405 7.42568 6.75829L7.86271 5.11533C8.35829 5.2311 9.95419 5.44718 9.69642 6.41679Z" fill="#FFA551"/>
</svg>
