<svg width="31" height="30" viewBox="0 0 31 30" fill="none" xmlns="http://www.w3.org/2000/svg">
<path d="M15.5344 0C6.7825 0 0 6.19024 0 14.5513C0 18.9246 1.85687 22.7038 4.87938 25.3144C5.40125 25.7687 5.29375 26.0318 5.3825 28.8366C5.38949 29.033 5.44604 29.2248 5.54722 29.3953C5.6484 29.5658 5.79114 29.7097 5.96298 29.8145C6.13482 29.9193 6.33055 29.9818 6.5331 29.9966C6.73565 30.0114 6.93885 29.978 7.125 29.8993C10.4319 28.49 10.4744 28.3787 11.035 28.5263C20.6156 31.0782 31 25.1444 31 14.5513C31 6.19024 24.2869 0 15.5344 0ZM24.8619 11.198L20.2994 18.1884C20.1271 18.4513 19.9005 18.6769 19.634 18.8511C19.3674 19.0252 19.0665 19.1443 18.7502 19.2006C18.4339 19.257 18.1089 19.2496 17.7957 19.1788C17.4825 19.1079 17.1878 18.9753 16.93 18.7891L13.3 16.1597C13.1377 16.0419 12.9403 15.9782 12.7375 15.9782C12.5347 15.9782 12.3373 16.0419 12.175 16.1597L7.27688 19.755C6.62313 20.2347 5.76687 19.4768 6.2075 18.8072L10.77 11.8167C10.9422 11.5538 11.1687 11.3281 11.4353 11.1539C11.7019 10.9797 12.0028 10.8606 12.3191 10.8042C12.6355 10.7478 12.9605 10.7553 13.2737 10.8262C13.5869 10.8971 13.8816 11.0298 14.1394 11.2161L17.7681 13.8449C17.9304 13.9626 18.1278 14.0263 18.3306 14.0263C18.5335 14.0263 18.7308 13.9626 18.8931 13.8449L23.7938 10.2531C24.4463 9.77046 25.3025 10.5278 24.8619 11.198Z" fill="#C5C5C5"/>
</svg>
