<svg width="27" height="30" viewBox="0 0 27 30" fill="none" xmlns="http://www.w3.org/2000/svg">
<path d="M13.5 16.875C17.6924 16.875 21.0938 13.0957 21.0938 8.4375C21.0938 3.7793 17.6924 0 13.5 0C9.30762 0 5.90625 3.7793 5.90625 8.4375C5.90625 13.0957 9.30762 16.875 13.5 16.875ZM20.25 18.75H17.3443C16.1736 19.3477 14.8711 19.6875 13.5 19.6875C12.1289 19.6875 10.8316 19.3477 9.65566 18.75H6.75C3.02168 18.75 0 22.1074 0 26.25V27.1875C0 28.7402 1.13379 30 2.53125 30H24.4688C25.8662 30 27 28.7402 27 27.1875V26.25C27 22.1074 23.9783 18.75 20.25 18.75Z" fill="#C5C5C5"/>
</svg>
