<svg width="28" height="32" viewBox="0 0 28 32" fill="none" xmlns="http://www.w3.org/2000/svg">
<path d="M27.4766 28.375V3.625C27.4766 1.76172 26.201 0.25 24.6289 0.25H3.74609C2.17395 0.25 0.898438 1.76172 0.898438 3.625V28.375C0.898438 30.2383 2.17395 31.75 3.74609 31.75H24.6289C26.201 31.75 27.4766 30.2383 27.4766 28.375ZM7.54297 11.5C7.01853 11.5 6.59375 10.9966 6.59375 10.375V8.125C6.59375 7.50344 7.01853 7 7.54297 7H15.1367C15.6612 7 16.0859 7.50344 16.0859 8.125V10.375C16.0859 10.9966 15.6612 11.5 15.1367 11.5H7.54297ZM7.54297 18.25C7.01853 18.25 6.59375 17.7466 6.59375 17.125V14.875C6.59375 14.2534 7.01853 13.75 7.54297 13.75H20.832C21.3565 13.75 21.7812 14.2534 21.7812 14.875V17.125C21.7812 17.7466 21.3565 18.25 20.832 18.25H7.54297ZM7.54297 25C7.01853 25 6.59375 24.4966 6.59375 23.875V21.625C6.59375 21.0034 7.01853 20.5 7.54297 20.5H11.3398C11.8643 20.5 12.2891 21.0034 12.2891 21.625V23.875C12.2891 24.4966 11.8643 25 11.3398 25H7.54297Z" fill="#C5C5C5"/>
</svg>
