<svg width="42" height="49" viewBox="0 0 42 49" fill="none" xmlns="http://www.w3.org/2000/svg">
<g clip-path="url(#clip0_391_2412)">
<path d="M21.5 35.875C25.6924 35.875 29.0938 32.0957 29.0938 27.4375C29.0938 22.7793 25.6924 19 21.5 19C17.3076 19 13.9062 22.7793 13.9062 27.4375C13.9062 32.0957 17.3076 35.875 21.5 35.875ZM28.25 37.75H25.3443C24.1736 38.3477 22.8711 38.6875 21.5 38.6875C20.1289 38.6875 18.8316 38.3477 17.6557 37.75H14.75C11.0217 37.75 8 41.1074 8 45.25V46.1875C8 47.7402 9.13379 49 10.5312 49H32.4688C33.8662 49 35 47.7402 35 46.1875V45.25C35 41.1074 31.9783 37.75 28.25 37.75Z" fill="#4AB7B6"/>
</g>
<rect width="42" height="5" rx="2.5" fill="#4AB7B6"/>
<defs>
<clipPath id="clip0_391_2412">
<rect width="27" height="30" fill="white" transform="translate(8 19)"/>
</clipPath>
</defs>
</svg>
