<svg width="42" height="50" viewBox="0 0 42 50" fill="none" xmlns="http://www.w3.org/2000/svg">
<path d="M20.5344 20C11.7825 20 5 26.1902 5 34.5513C5 38.9246 6.85687 42.7038 9.87937 45.3144C10.4012 45.7687 10.2937 46.0318 10.3825 48.8366C10.3895 49.033 10.446 49.2248 10.5472 49.3953C10.6484 49.5658 10.7911 49.7097 10.963 49.8145C11.1348 49.9193 11.3306 49.9818 11.5331 49.9966C11.7356 50.0114 11.9389 49.978 12.125 49.8993C15.4319 48.49 15.4744 48.3787 16.035 48.5263C25.6156 51.0782 36 45.1444 36 34.5513C36 26.1902 29.2869 20 20.5344 20ZM29.8619 31.198L25.2994 38.1884C25.1271 38.4513 24.9005 38.6769 24.634 38.8511C24.3674 39.0252 24.0665 39.1443 23.7502 39.2006C23.4339 39.257 23.1089 39.2496 22.7957 39.1788C22.4825 39.1079 22.1878 38.9753 21.93 38.7891L18.3 36.1597C18.1377 36.0419 17.9403 35.9782 17.7375 35.9782C17.5347 35.9782 17.3373 36.0419 17.175 36.1597L12.2769 39.755C11.6231 40.2347 10.7669 39.4768 11.2075 38.8072L15.77 31.8167C15.9422 31.5538 16.1687 31.3281 16.4353 31.1539C16.7019 30.9797 17.0028 30.8606 17.3191 30.8042C17.6355 30.7478 17.9605 30.7553 18.2737 30.8262C18.5869 30.8971 18.8816 31.0298 19.1394 31.2161L22.7681 33.8449C22.9304 33.9626 23.1278 34.0263 23.3306 34.0263C23.5335 34.0263 23.7308 33.9626 23.8931 33.8449L28.7938 30.2531C29.4463 29.7705 30.3025 30.5278 29.8619 31.198Z" fill="#4AB7B6"/>
<rect width="42" height="5" rx="2.5" fill="#4AB7B6"/>
</svg>
