<svg width="42" height="55" viewBox="0 0 42 55" fill="none" xmlns="http://www.w3.org/2000/svg">
<path d="M34.4766 49.375V24.625C34.4766 22.7617 33.201 21.25 31.6289 21.25H10.7461C9.17395 21.25 7.89844 22.7617 7.89844 24.625V49.375C7.89844 51.2383 9.17395 52.75 10.7461 52.75H31.6289C33.201 52.75 34.4766 51.2383 34.4766 49.375ZM14.543 32.5C14.0185 32.5 13.5938 31.9966 13.5938 31.375V29.125C13.5938 28.5034 14.0185 28 14.543 28H22.1367C22.6612 28 23.0859 28.5034 23.0859 29.125V31.375C23.0859 31.9966 22.6612 32.5 22.1367 32.5H14.543ZM14.543 39.25C14.0185 39.25 13.5938 38.7466 13.5938 38.125V35.875C13.5938 35.2534 14.0185 34.75 14.543 34.75H27.832C28.3565 34.75 28.7812 35.2534 28.7812 35.875V38.125C28.7812 38.7466 28.3565 39.25 27.832 39.25H14.543ZM14.543 46C14.0185 46 13.5938 45.4966 13.5938 44.875V42.625C13.5938 42.0034 14.0185 41.5 14.543 41.5H18.3398C18.8643 41.5 19.2891 42.0034 19.2891 42.625V44.875C19.2891 45.4966 18.8643 46 18.3398 46H14.543Z" fill="#4AB7B6"/>
<rect width="42" height="5" rx="2.5" fill="#4AB7B6"/>
</svg>
