<svg width="28" height="28" viewBox="0 0 28 28" fill="none" xmlns="http://www.w3.org/2000/svg">
<rect width="27.52" height="27.52" transform="translate(0.306641 0.47998)" fill="#E8EFF3"/>
<path d="M12.8506 2.69458C7.1646 2.69458 2.53284 7.32634 2.53284 13.0124C2.53284 18.6983 7.1646 23.3391 12.8506 23.3391C15.2793 23.3391 17.5129 22.488 19.2782 21.0749L23.576 25.3704C23.7928 25.5783 24.0825 25.693 24.3829 25.6899C24.6834 25.6868 24.9706 25.5663 25.1832 25.354C25.3958 25.1417 25.5168 24.8546 25.5203 24.5542C25.5238 24.2538 25.4095 23.9639 25.2019 23.7467L20.9041 19.449C22.3185 17.681 23.1706 15.4438 23.1706 13.0124C23.1706 7.32634 18.5366 2.69458 12.8506 2.69458ZM12.8506 4.98795C17.2972 4.98795 20.875 8.56578 20.875 13.0124C20.875 17.4589 17.2972 21.0458 12.8506 21.0458C8.40401 21.0458 4.82617 17.4589 4.82617 13.0124C4.82617 8.56578 8.40401 4.98795 12.8506 4.98795Z" fill="#7D8FAB"/>
</svg>
