<svg width="94" height="16" viewBox="0 0 94 16" fill="none" xmlns="http://www.w3.org/2000/svg">
<path d="M4.43631 15.2933V3.0951H0.205112V0.845336H11.4333V3.0951H7.20207V15.2933H4.43631ZM14.7657 15.541C13.8988 15.541 13.1764 15.4034 12.5985 15.1282C12.0344 14.853 11.6147 14.4815 11.3395 14.0137C11.078 13.5321 10.9473 13.0092 10.9473 12.445C10.9473 11.8121 11.1056 11.2548 11.422 10.7732C11.7523 10.2916 12.2476 9.92006 12.9081 9.65862C13.5686 9.38342 14.3942 9.24582 15.3849 9.24582H17.9649C17.9649 8.7367 17.8892 8.3239 17.7379 8.00742C17.6003 7.67718 17.387 7.4295 17.098 7.26438C16.8091 7.09926 16.4307 7.0167 15.9628 7.0167C15.44 7.0167 14.9859 7.13366 14.6006 7.36758C14.2291 7.6015 14.002 7.95238 13.9195 8.42022H11.2156C11.2844 7.67718 11.5321 7.03734 11.9587 6.5007C12.3852 5.9503 12.9425 5.52374 13.6305 5.22102C14.3323 4.90454 15.1166 4.7463 15.9835 4.7463C16.9604 4.7463 17.7998 4.91142 18.5016 5.24166C19.2171 5.5719 19.7675 6.04662 20.1528 6.66582C20.5518 7.28502 20.7513 8.0487 20.7513 8.95686V15.2933H18.3984L18.0888 13.7041C17.9374 13.9793 17.7585 14.2269 17.5521 14.4471C17.3457 14.6673 17.1049 14.8599 16.8297 15.025C16.5545 15.1901 16.2449 15.314 15.9009 15.3965C15.5569 15.4929 15.1785 15.541 14.7657 15.541ZM15.4262 13.3945C15.7977 13.3945 16.1211 13.3325 16.3963 13.2087C16.6852 13.0711 16.926 12.8922 17.1187 12.6721C17.3251 12.4381 17.4833 12.1767 17.5934 11.8877C17.7172 11.5988 17.7998 11.2892 17.8411 10.9589V10.9383H15.6945C15.2817 10.9383 14.9377 10.9933 14.6625 11.1034C14.3873 11.2135 14.1878 11.3649 14.064 11.5575C13.9401 11.7364 13.8782 11.9497 13.8782 12.1973C13.8782 12.4588 13.9401 12.6789 14.064 12.8578C14.2016 13.0367 14.3804 13.1743 14.6006 13.2706C14.8345 13.3532 15.1097 13.3945 15.4262 13.3945ZM27.2664 15.541C26.3444 15.541 25.5326 15.3897 24.8308 15.0869C24.1428 14.7842 23.5924 14.3714 23.1796 13.8485C22.7668 13.3119 22.526 12.7065 22.4572 12.0322H25.2436C25.2987 12.2799 25.4088 12.5138 25.5739 12.734C25.7528 12.9404 25.9798 13.1055 26.255 13.2293C26.544 13.3532 26.8673 13.4151 27.2251 13.4151C27.6104 13.4151 27.92 13.3669 28.1539 13.2706C28.3878 13.1605 28.5598 13.0229 28.6699 12.8578C28.78 12.6789 28.835 12.5001 28.835 12.3212C28.835 12.0322 28.7524 11.8121 28.5873 11.6607C28.4222 11.5093 28.1745 11.3855 27.8443 11.2892C27.5278 11.1929 27.1494 11.0965 26.7091 11.0002C26.255 10.8901 25.794 10.7663 25.3262 10.6287C24.8584 10.4911 24.4318 10.3191 24.0465 10.1127C23.675 9.89254 23.3723 9.61046 23.1384 9.26646C22.9044 8.92246 22.7875 8.50278 22.7875 8.00742C22.7875 7.40198 22.9526 6.85158 23.2828 6.35622C23.6131 5.86086 24.0947 5.4687 24.7276 5.17974C25.3606 4.89078 26.1174 4.7463 26.998 4.7463C28.2364 4.7463 29.2203 5.03526 29.9496 5.61318C30.6926 6.17734 31.126 6.95478 31.2499 7.9455H28.6286C28.5598 7.61526 28.3809 7.3607 28.092 7.18182C27.803 6.98918 27.4315 6.89286 26.9774 6.89286C26.4958 6.89286 26.1243 6.9823 25.8628 7.16118C25.6152 7.34006 25.4913 7.5671 25.4913 7.8423C25.4913 8.03494 25.5739 8.20694 25.739 8.3583C25.9179 8.4959 26.1656 8.61974 26.482 8.72982C26.8123 8.82614 27.1907 8.92246 27.6172 9.01878C28.3878 9.1839 29.0689 9.36966 29.6606 9.57606C30.266 9.78246 30.7476 10.0783 31.1054 10.4636C31.4632 10.8489 31.6352 11.413 31.6214 12.1561C31.6352 12.8028 31.4632 13.3876 31.1054 13.9105C30.7476 14.4196 30.2454 14.8186 29.5987 15.1076C28.952 15.3965 28.1745 15.541 27.2664 15.541ZM40.516 15.2933L36.0578 9.63798L40.0206 4.99398H43.323L38.2043 10.7938L38.1837 8.60598L43.9835 15.2933H40.516ZM33.6842 15.2933V0.432536H36.4706V15.2933H33.6842Z" fill="#FDAA5D"/>
<path d="M45.4034 15.2933V0.845336H48.7264L53.1847 9.84438L57.6223 0.845336H60.9247V15.2933H58.1383V5.5719L54.2786 13.25H52.0701L48.1898 5.5719V15.2933H45.4034ZM66.9177 15.541C66.0508 15.541 65.3284 15.4034 64.7505 15.1282C64.1864 14.853 63.7667 14.4815 63.4915 14.0137C63.23 13.5321 63.0993 13.0092 63.0993 12.445C63.0993 11.8121 63.2576 11.2548 63.574 10.7732C63.9043 10.2916 64.3996 9.92006 65.0601 9.65862C65.7206 9.38342 66.5462 9.24582 67.5369 9.24582H70.1169C70.1169 8.7367 70.0412 8.3239 69.8899 8.00742C69.7523 7.67718 69.539 7.4295 69.25 7.26438C68.9611 7.09926 68.5827 7.0167 68.1148 7.0167C67.592 7.0167 67.1379 7.13366 66.7526 7.36758C66.3811 7.6015 66.154 7.95238 66.0715 8.42022H63.3676C63.4364 7.67718 63.6841 7.03734 64.1107 6.5007C64.5372 5.9503 65.0945 5.52374 65.7825 5.22102C66.4843 4.90454 67.2686 4.7463 68.1355 4.7463C69.1124 4.7463 69.9518 4.91142 70.6536 5.24166C71.3691 5.5719 71.9195 6.04662 72.3048 6.66582C72.7038 7.28502 72.9033 8.0487 72.9033 8.95686V15.2933H70.5504L70.2408 13.7041C70.0894 13.9793 69.9105 14.2269 69.7041 14.4471C69.4977 14.6673 69.2569 14.8599 68.9817 15.025C68.7065 15.1901 68.3969 15.314 68.0529 15.3965C67.7089 15.4929 67.3305 15.541 66.9177 15.541ZM67.5782 13.3945C67.9497 13.3945 68.2731 13.3325 68.5483 13.2087C68.8372 13.0711 69.078 12.8922 69.2707 12.6721C69.4771 12.4381 69.6353 12.1767 69.7454 11.8877C69.8692 11.5988 69.9518 11.2892 69.9931 10.9589V10.9383H67.8465C67.4337 10.9383 67.0897 10.9933 66.8145 11.1034C66.5393 11.2135 66.3398 11.3649 66.216 11.5575C66.0921 11.7364 66.0302 11.9497 66.0302 12.1973C66.0302 12.4588 66.0921 12.6789 66.216 12.8578C66.3536 13.0367 66.5324 13.1743 66.7526 13.2706C66.9865 13.3532 67.2617 13.3945 67.5782 13.3945ZM79.7102 15.2933C78.9809 15.2933 78.3411 15.1833 77.7907 14.9631C77.2541 14.7292 76.8344 14.3508 76.5317 13.8279C76.2289 13.2913 76.0776 12.562 76.0776 11.6401V7.3263H74.3232V4.99398H76.0776L76.3872 2.20758H78.864V4.99398H81.5885V7.3263H78.864V11.6813C78.864 12.1492 78.9672 12.4725 79.1736 12.6514C79.38 12.8303 79.7309 12.9197 80.2262 12.9197H81.5472V15.2933H79.7102ZM88.3523 15.541C87.3065 15.541 86.3777 15.3209 85.5659 14.8805C84.7678 14.4265 84.1417 13.8004 83.6877 13.0023C83.2336 12.2042 83.0065 11.2823 83.0065 10.2365C83.0065 9.16326 83.2267 8.2207 83.667 7.40886C84.1211 6.58326 84.7472 5.93654 85.5453 5.4687C86.3571 4.9871 87.2928 4.7463 88.3523 4.7463C89.3843 4.7463 90.2856 4.97334 91.0561 5.42742C91.8267 5.86774 92.4321 6.47318 92.8725 7.24374C93.3128 8.00054 93.5329 8.86742 93.5329 9.84438C93.5329 9.98198 93.5261 10.1333 93.5123 10.2985C93.5123 10.4636 93.4985 10.6425 93.471 10.8351H85.0086V9.12198H90.7053C90.664 8.48902 90.4232 7.9799 89.9829 7.59462C89.5563 7.20934 89.0197 7.0167 88.3729 7.0167C87.8913 7.0167 87.451 7.12678 87.052 7.34694C86.6529 7.55334 86.3365 7.86982 86.1025 8.29638C85.8686 8.72294 85.7517 9.26646 85.7517 9.92694V10.5255C85.7517 11.0897 85.8617 11.5781 86.0819 11.9909C86.3021 12.39 86.6048 12.7065 86.9901 12.9404C87.3891 13.1605 87.8363 13.2706 88.3317 13.2706C88.8408 13.2706 89.2673 13.1605 89.6113 12.9404C89.9553 12.7065 90.2168 12.4106 90.3957 12.0529H93.2233C93.0307 12.7133 92.7073 13.305 92.2533 13.8279C91.7992 14.3508 91.2419 14.7705 90.5814 15.0869C89.9209 15.3897 89.1779 15.541 88.3523 15.541Z" fill="#4AB7B6"/>
</svg>
